<svg width="144" height="121" viewBox="0 0 144 121" fill="none" xmlns="http://www.w3.org/2000/svg">
<g clip-path="url(#clip0_19_5310)">
<path d="M76.3541 91.581C74.2313 91.8624 72.6785 93.0378 72.8857 94.2062C73.093 95.3746 74.9817 96.0933 77.1052 95.8115C77.9553 95.7091 78.7646 95.432 79.4654 95.0035L88.4423 93.713L87.8432 90.644L78.8865 91.7402C78.0692 91.513 77.2008 91.4584 76.3541 91.581Z" fill="#F7D1B5"/>
<path d="M115.037 82.0145L111.556 88.4027L94.0578 93.4974L79.5375 94.1674L79.1738 91.151L94.9104 88.3053L111.058 81.7056L115.037 82.0145Z" fill="#DEE9DE"/>
<path d="M75.3366 68.6501L74.8594 68.6592L75.7716 104.512L76.2488 104.503L75.3366 68.6501Z" fill="#425F80"/>
<path d="M75.3454 84.5248C75.3022 84.3977 74.3129 81.374 76.4551 78.4019L76.8601 78.6203C74.8344 81.4306 75.7935 84.3793 75.8034 84.409L75.3454 84.5248Z" fill="#425F80"/>
<path d="M76.6242 78.6312C76.6242 78.6312 75.973 74.7815 81.9723 73.7249C83.2222 73.5048 84.3972 73.3544 85.4743 73.2542C86.7457 73.1358 87.2417 74.6411 86.0931 75.1273C84.4297 75.8314 82.8651 76.7185 82.0495 77.7691C79.8002 80.6665 76.6242 78.6312 76.6242 78.6312Z" fill="#008186"/>
<path d="M75.9639 95.6572L75.5059 95.5413C75.5158 95.5117 76.4749 92.5629 74.4492 89.7526L74.8542 89.5342C76.9964 92.5063 76.0071 95.53 75.9639 95.6572Z" fill="#425F80"/>
<path d="M74.6861 89.764C74.6861 89.764 75.3373 85.9143 69.338 84.8578C68.0881 84.6376 66.9131 84.4872 65.836 84.387C64.5646 84.2687 64.0687 85.7739 65.2172 86.2601C66.8806 86.9642 68.4453 87.8513 69.2608 88.9019C71.5101 91.7993 74.6861 89.764 74.6861 89.764Z" fill="#008186"/>
<path d="M83.0356 63.6723C84.2432 63.3969 85.3724 62.9171 85.335 62.4424C85.2905 61.8785 83.6139 61.5007 82.1676 61.4432C83.2585 60.7051 84.2609 59.6846 83.9544 59.2232C83.6726 58.7989 82.3616 58.9632 81.152 59.3369C81.8678 58.4518 82.371 57.4545 81.9878 57.1131C81.5104 56.688 79.816 57.4218 78.6596 58.233C78.8847 56.9693 78.7709 55.3741 78.1156 55.2298C77.5673 55.1091 76.7903 56.037 76.2576 57.0478C76.0221 55.987 75.5455 54.98 74.9954 54.98C74.2117 54.98 73.5764 57.0235 73.5764 58.3548C73.5764 58.4301 73.5787 58.5009 73.5827 58.5686C73.504 58.4898 73.4139 58.4074 73.3111 58.321C72.2068 57.3935 70.0692 56.364 69.5232 56.8502C69.14 57.1915 69.6432 58.1888 70.359 59.0739C69.1495 58.7003 67.8385 58.5359 67.5567 58.9602C67.178 59.5303 68.7966 60.9534 70.1123 61.6435C70.0332 61.6353 69.9501 61.6283 69.8617 61.6231C68.3259 61.5325 65.9253 61.9415 65.872 62.6177C65.8345 63.0924 66.9638 63.5723 68.1714 63.8476C66.9691 64.2385 65.8459 64.8458 65.9478 65.3271C66.0715 65.9113 67.9589 66.1157 69.4428 65.996C68.3342 66.916 67.1321 68.564 67.6338 69.047C68.0014 69.4009 69.1861 69.0346 70.2559 68.4772C69.7425 69.4954 69.4636 70.6155 69.9339 70.8875C70.5553 71.2471 72.2597 69.9957 73.1582 68.919C73.0667 70.2363 73.4311 72.0459 74.1542 72.1173C74.7008 72.1713 75.3064 71.2175 75.6795 70.1867C76.0762 71.2433 76.7265 72.2414 77.287 72.1753C78.0159 72.0892 78.3337 70.2343 78.1978 68.9161C79.1247 69.9485 80.6846 71.0527 81.2731 70.7122C81.7433 70.4402 81.4645 69.3201 80.9511 68.3019C82.0208 68.8593 83.2056 69.2256 83.5732 68.8717C84.0749 68.3887 82.8728 66.7407 81.7641 65.8207C83.2481 65.9404 85.1354 65.7359 85.2592 65.1518C85.3611 64.6705 84.2379 64.0632 83.0356 63.6723ZM76.5334 67.3983C76.223 67.4349 75.9391 67.4872 75.7233 67.6208C75.494 67.4239 75.1591 67.364 74.7867 67.3272C74.3697 67.286 73.9908 67.282 73.7019 67.4902C73.5961 67.236 73.3361 67.0554 73.0333 66.8802C72.7729 66.7296 72.5204 66.6059 72.2564 66.5821C72.2358 66.3032 72.0311 66.0662 71.7806 65.825C71.6209 65.6713 71.4611 65.5338 71.2838 65.4418C71.5396 65.1724 71.5101 64.832 71.431 64.4583C71.3745 64.1918 71.3012 63.9489 71.137 63.7685C71.354 63.5615 71.408 63.2694 71.4335 62.9459C71.4614 62.5928 71.4498 62.2726 71.2141 62.0342C71.8232 62.1012 72.1171 61.7731 72.3903 61.3618C72.5463 61.1269 72.6718 60.9005 72.6813 60.6711C73.0016 60.6343 73.2611 60.4416 73.5222 60.2091C73.7453 60.0104 73.935 59.8137 74.0063 59.5873C74.2619 59.7731 74.6106 59.8012 74.9954 59.8012C75.3702 59.8012 75.7108 59.7745 75.9644 59.6014C76.1614 59.7553 76.4365 59.8351 76.7401 59.902C77.0299 59.9658 77.3035 60.0085 77.5522 59.9655C77.643 60.1449 77.8044 60.3078 77.9888 60.472C78.2499 60.7046 78.5094 60.8973 78.8297 60.9341C78.8392 61.1635 78.9647 61.3898 79.1208 61.6248C79.3044 61.9013 79.4974 62.1405 79.7892 62.2471C79.7551 62.4078 79.7588 62.5846 79.7735 62.7706C79.799 63.094 79.853 63.3861 80.0699 63.5932C79.9058 63.7736 79.8324 64.0165 79.776 64.283C79.6968 64.6566 79.6673 64.9971 79.9231 65.2665C79.7458 65.3585 79.586 65.4959 79.4263 65.6497C79.1759 65.8909 78.9712 66.1279 78.9506 66.4067C78.6866 66.4306 78.4341 66.5543 78.1737 66.7049C77.818 66.9107 77.5217 67.1239 77.4649 67.4551C77.198 67.3431 76.8785 67.3576 76.5334 67.3983Z" fill="#009DA3"/>
<path d="M75.7044 68.0413C78.5032 68.0413 80.7721 66.079 80.7721 63.6583C80.7721 61.2377 78.5032 59.2754 75.7044 59.2754C72.9056 59.2754 70.6367 61.2377 70.6367 63.6583C70.6367 66.079 72.9056 68.0413 75.7044 68.0413Z" fill="#FFCD93"/>
<path d="M14.5879 116.806C14.5879 116.942 14.7144 117.052 14.8718 117.052H139.492C139.649 117.052 139.776 116.942 139.776 116.806C139.776 116.67 139.649 116.561 139.492 116.561H14.8718C14.7144 116.561 14.5879 116.67 14.5879 116.806Z" fill="#425F80"/>
<path d="M82.763 106.271L79.638 113.107L75.5938 110.722L77.9835 103.568L82.763 106.271Z" fill="#F7D1B5"/>
<path d="M69.7117 103.727L61.4395 110.564L64.7483 113.584L73.2044 107.861L69.7117 103.727Z" fill="#F7D1B5"/>
<path d="M116.588 81.4687L116.496 80.9122L114.382 77.335L107.396 78.9249L108.683 83.8535L116.588 81.4687Z" fill="#F7D1B5"/>
<path d="M113.646 105.317L113.86 107.705C113.86 107.705 114.749 117.718 107.579 118.513C100.41 119.308 97.285 120.103 93.0569 113.902L86.4392 103.727L82.5737 107.705L77.4316 104.204C77.4316 104.204 81.1082 91.8028 84.0494 91.3258C84.4171 91.2662 84.7847 91.2364 85.1466 91.2299C87.5816 91.186 89.8769 92.2161 91.3338 93.9041L99.6747 103.568L102.708 102.376L113.646 105.317Z" fill="#213650"/>
<path d="M73.9394 112.789L75.5938 110.086L80.3733 112.948C80.3733 112.948 81.4763 116.446 79.8219 116.923C78.1674 117.4 73.5717 116.764 73.5717 116.764C73.5717 116.764 65.1157 118.354 64.9319 116.923C64.748 115.492 68.7922 115.174 68.7922 115.174L73.9394 112.789Z" fill="#213650"/>
<path d="M91.9539 110.882L79.178 103.919L72.6521 108.974L68.2402 104.522C68.2402 104.522 76.3286 94.1879 78.7184 93.711C81.1081 93.234 84.9685 92.916 84.9685 92.916L96.7334 102.296L91.9539 110.882Z" fill="#213650"/>
<path d="M61.2548 109.928L65.4829 113.902L64.9253 114.315C64.9253 114.315 63.8284 118.447 61.2548 117.049C58.6813 115.651 58.4974 115.333 58.4974 115.333C58.4974 115.333 51.1443 116.764 50.409 114.22C49.6737 111.677 51.6958 112.154 51.6958 112.154L53.5319 113.108L61.2548 109.928Z" fill="#213650"/>
<path d="M109.603 80.6738C112.852 80.6738 115.486 78.396 115.486 75.5862C115.486 72.7764 112.852 70.4985 109.603 70.4985C106.354 70.4985 103.721 72.7764 103.721 75.5862C103.721 78.396 106.354 80.6738 109.603 80.6738Z" fill="#F7D1B5"/>
<path d="M108.224 82.8201L116.68 80.5942C116.68 80.5942 119.989 87.2718 119.437 90.2926C118.886 93.3133 113.861 107.705 113.861 107.705L102.709 102.376C102.709 102.376 102.525 99.1959 101.974 97.765C101.422 96.3341 99.6757 91.9619 103.536 88.3052C107.396 84.6485 108.224 82.8201 108.224 82.8201Z" fill="#DEE9DE"/>
<path d="M25.643 32.6882L25.166 32.6973L27.3134 117.1L27.7904 117.091L25.643 32.6882Z" fill="#425F80"/>
<path d="M26.3011 69.9744C26.2766 69.9023 23.9108 62.6777 28.8778 55.7866L29.2828 56.005C24.4277 62.741 26.735 69.7878 26.7589 69.8583L26.3011 69.9744Z" fill="#425F80"/>
<path d="M28.998 56.1789C28.998 56.1789 27.4649 47.116 41.5883 44.6287C44.5307 44.1105 47.2969 43.7564 49.8326 43.5204C52.8256 43.2419 53.9932 46.7855 51.2893 47.9301C47.3735 49.5876 43.6899 51.6761 41.77 54.1493C36.4748 60.9702 28.998 56.1789 28.998 56.1789Z" fill="#008186"/>
<path d="M27.1341 96.1825L26.6762 96.0664C26.7 95.9961 29.0029 88.9427 24.1523 82.2131L24.5573 81.9946C29.5243 88.8858 27.1585 96.1104 27.1341 96.1825Z" fill="#425F80"/>
<path d="M24.4366 82.3869C24.4366 82.3869 25.9697 73.324 11.8463 70.8367C8.90388 70.3185 6.13772 69.9644 3.60206 69.7284C0.608977 69.4499 -0.558544 72.9935 2.14533 74.1381C6.06115 75.7957 9.74469 77.8841 11.6646 80.3573C16.9598 87.1782 24.4366 82.3869 24.4366 82.3869Z" fill="#008186"/>
<path d="M44.0936 20.9632C46.9365 20.315 49.5949 19.1853 49.5068 18.0679C49.402 16.7404 45.4552 15.8509 42.0502 15.7155C44.6185 13.9778 46.9782 11.5756 46.2566 10.4892C45.5932 9.49035 42.5069 9.87724 39.6594 10.7569C41.3445 8.67328 42.5292 6.32537 41.6269 5.52185C40.503 4.52094 36.5141 6.24852 33.7919 8.15813C34.3218 5.18315 34.0539 1.42794 32.5111 1.0882C31.2205 0.803967 29.3912 2.98841 28.1371 5.36798C27.5828 2.8708 26.4607 0.5 25.1656 0.5C23.3207 0.5 21.8252 5.31077 21.8252 8.445C21.8252 8.62217 21.8306 8.78894 21.8399 8.94829C21.6548 8.76262 21.4426 8.56865 21.2005 8.36537C18.6009 6.1818 13.5686 3.75812 12.2833 4.90276C11.3811 5.70627 12.5658 8.05419 14.2509 10.1378C11.4034 9.25815 8.3171 8.87125 7.65366 9.87006C6.76222 11.2121 10.5727 14.5624 13.67 16.1871C13.4838 16.1677 13.2882 16.1513 13.08 16.139C9.46453 15.9257 3.81327 16.8887 3.68768 18.4806C3.59951 19.5981 6.25795 20.7277 9.10082 21.376C6.27048 22.2961 3.62614 23.7259 3.86615 24.8589C4.15745 26.2341 8.60056 26.7154 12.094 26.4337C9.48415 28.5994 6.65417 32.4791 7.8352 33.6161C8.70068 34.4493 11.4897 33.5869 14.008 32.2747C12.7994 34.6718 12.143 37.3086 13.25 37.949C14.713 38.7954 18.7253 35.8496 20.8407 33.3148C20.6252 36.4159 21.4831 40.676 23.1854 40.8442C24.4721 40.9713 25.8979 38.7259 26.7762 36.2992C27.7101 38.7865 29.241 41.1363 30.5606 40.9806C32.2766 40.778 33.0247 36.4113 32.7046 33.308C34.8867 35.7385 38.559 38.3378 39.9444 37.5363C41.0514 36.8959 40.395 34.2591 39.1864 31.862C41.7047 33.1742 44.4938 34.0366 45.3592 33.2034C46.5403 32.0663 43.7103 28.1867 41.1004 26.0209C44.5939 26.3027 49.037 25.8213 49.3283 24.4462C49.5683 23.3132 46.924 21.8834 44.0936 20.9632ZM28.7863 29.7348C28.0556 29.821 27.3874 29.9442 26.8792 30.2587C26.3394 29.7952 25.551 29.654 24.6743 29.5675C23.6927 29.4705 22.8007 29.4611 22.1205 29.9511C21.8716 29.3527 21.2595 28.9276 20.5466 28.5152C19.9336 28.1605 19.3391 27.8694 18.7176 27.8132C18.669 27.1567 18.1873 26.5988 17.5976 26.031C17.2216 25.6691 16.8454 25.3454 16.428 25.129C17.0303 24.4948 16.9608 23.6932 16.7745 22.8136C16.6416 22.1862 16.4689 21.6145 16.0825 21.1898C16.5932 20.7022 16.7203 20.0146 16.7804 19.2532C16.846 18.4219 16.8187 17.6682 16.2639 17.1069C17.6977 17.2647 18.3897 16.4921 19.0328 15.5239C19.4002 14.9708 19.6955 14.438 19.718 13.8979C20.472 13.8113 21.0829 13.3576 21.6976 12.8102C22.2227 12.3425 22.6694 11.8794 22.8371 11.3465C23.4389 11.7838 24.2599 11.85 25.1656 11.85C26.048 11.85 26.8498 11.7871 27.447 11.3796C27.9106 11.7419 28.5583 11.9299 29.273 12.0873C29.9553 12.2375 30.5993 12.338 31.1849 12.2369C31.3986 12.6592 31.7786 13.0427 32.2127 13.4292C32.8274 13.9767 33.4382 14.4304 34.1923 14.517C34.2147 15.0571 34.5101 15.5899 34.8775 16.143C35.3099 16.794 35.7641 17.357 36.4511 17.6081C36.3709 17.9863 36.3795 18.4026 36.414 18.8405C36.4741 19.6019 36.6012 20.2895 37.112 20.777C36.7256 21.2017 36.5528 21.7734 36.4199 22.4009C36.2336 23.2805 36.1642 24.0821 36.7664 24.7163C36.349 24.9327 35.9728 25.2563 35.5968 25.6183C35.0072 26.186 34.5254 26.744 34.4768 27.4005C33.8554 27.4567 33.2609 27.7478 32.6478 28.1024C31.8106 28.5868 31.1131 29.0889 30.9792 29.8685C30.3509 29.6049 29.5988 29.6389 28.7863 29.7348Z" fill="#009DA3"/>
<path d="M26.8364 31.2482C33.4253 31.2482 38.7666 26.6286 38.7666 20.93C38.7666 15.2314 33.4253 10.6118 26.8364 10.6118C20.2476 10.6118 14.9062 15.2314 14.9062 20.93C14.9062 26.6286 20.2476 31.2482 26.8364 31.2482Z" fill="#FFCD93"/>
<path d="M137.063 96.7175L136.586 96.7266L137.099 116.894L137.576 116.884L137.063 96.7175Z" fill="#425F80"/>
<path d="M136.864 105.674C136.839 105.601 136.27 103.862 137.5 102.157L137.905 102.375C136.791 103.919 137.316 105.542 137.322 105.558L136.864 105.674Z" fill="#425F80"/>
<path d="M137.684 102.333C137.684 102.333 137.317 100.168 140.692 99.5737C141.395 99.4499 142.056 99.3653 142.662 99.3089C143.377 99.2423 143.656 100.089 143.01 100.363C142.074 100.759 141.194 101.258 140.735 101.849C139.47 103.478 137.684 102.333 137.684 102.333Z" fill="#009DA3"/>
<path d="M137.412 111.936L136.954 111.82C136.959 111.804 137.484 110.181 136.371 108.637L136.776 108.419C138.006 110.125 137.437 111.863 137.412 111.936Z" fill="#425F80"/>
<path d="M136.593 108.596C136.593 108.596 136.96 106.43 133.585 105.836C132.882 105.712 132.221 105.627 131.615 105.571C130.9 105.505 130.621 106.351 131.267 106.625C132.203 107.021 133.083 107.52 133.542 108.111C134.807 109.741 136.593 108.596 136.593 108.596Z" fill="#009DA3"/>
<path d="M141.29 93.9192C141.969 93.7643 142.604 93.4944 142.583 93.2274C142.558 92.9102 141.615 92.6977 140.802 92.6654C141.415 92.2501 141.979 91.6762 141.807 91.4166C141.648 91.1779 140.911 91.2704 140.23 91.4806C140.633 90.9827 140.916 90.4217 140.7 90.2297C140.432 89.9905 139.479 90.4033 138.828 90.8596C138.955 90.1488 138.891 89.2515 138.522 89.1703C138.214 89.1024 137.777 89.6244 137.477 90.1929C137.345 89.5963 137.077 89.0298 136.767 89.0298C136.326 89.0298 135.969 90.1793 135.969 90.9282C135.969 90.9705 135.97 91.0103 135.973 91.0484C135.928 91.004 135.878 90.9577 135.82 90.9091C135.199 90.3874 133.996 89.8083 133.689 90.0818C133.474 90.2738 133.757 90.8348 134.159 91.3326C133.479 91.1224 132.741 91.03 132.583 91.2686C132.37 91.5893 133.28 92.3898 134.02 92.778C133.976 92.7734 133.929 92.7695 133.879 92.7665C133.016 92.7156 131.665 92.9457 131.635 93.326C131.614 93.593 132.249 93.8629 132.929 94.0178C132.252 94.2377 131.621 94.5793 131.678 94.8501C131.748 95.1786 132.809 95.2937 133.644 95.2263C133.02 95.7438 132.344 96.6708 132.626 96.9425C132.833 97.1416 133.499 96.9355 134.101 96.622C133.812 97.1947 133.656 97.8248 133.92 97.9778C134.27 98.18 135.228 97.4762 135.734 96.8705C135.682 97.6115 135.887 98.6294 136.294 98.6695C136.601 98.6999 136.942 98.1634 137.152 97.5836C137.375 98.1779 137.741 98.7393 138.056 98.7021C138.466 98.6537 138.645 97.6103 138.569 96.8689C139.09 97.4496 139.967 98.0707 140.298 97.8792C140.563 97.7261 140.406 97.0961 140.117 96.5234C140.719 96.8369 141.385 97.0429 141.592 96.8439C141.874 96.5722 141.198 95.6452 140.575 95.1277C141.409 95.195 142.471 95.08 142.541 94.7514C142.598 94.4807 141.966 94.1391 141.29 93.9192ZM137.632 96.0151C137.458 96.0357 137.298 96.0651 137.177 96.1403C137.048 96.0295 136.859 95.9958 136.65 95.9751C136.415 95.9519 136.202 95.9497 136.04 96.0668C135.98 95.9238 135.834 95.8222 135.664 95.7237C135.517 95.6389 135.375 95.5694 135.226 95.556C135.215 95.3991 135.1 95.2658 134.959 95.1301C134.869 95.0436 134.779 94.9663 134.679 94.9146C134.823 94.7631 134.807 94.5715 134.762 94.3614C134.73 94.2114 134.689 94.0748 134.597 93.9734C134.719 93.8569 134.749 93.6926 134.764 93.5106C134.779 93.312 134.773 93.1319 134.64 92.9978C134.983 93.0355 135.148 92.8509 135.302 92.6196C135.39 92.4874 135.46 92.3601 135.466 92.2311C135.646 92.2104 135.792 92.102 135.939 91.9711C136.064 91.8594 136.171 91.7488 136.211 91.6214C136.355 91.7259 136.551 91.7417 136.767 91.7417C136.978 91.7417 137.17 91.7267 137.312 91.6293C137.423 91.7159 137.578 91.7608 137.749 91.7984C137.912 91.8343 138.065 91.8583 138.205 91.8342C138.256 91.9351 138.347 92.0267 138.451 92.1191C138.598 92.2499 138.744 92.3583 138.924 92.379C138.929 92.508 139 92.6353 139.088 92.7675C139.191 92.923 139.3 93.0576 139.464 93.1176C139.445 93.2079 139.447 93.3074 139.455 93.412C139.469 93.5939 139.5 93.7583 139.622 93.8747C139.529 93.9762 139.488 94.1128 139.456 94.2627C139.412 94.4729 139.395 94.6644 139.539 94.816C139.439 94.8677 139.349 94.945 139.26 95.0315C139.119 95.1672 139.004 95.3005 138.992 95.4573C138.843 95.4708 138.701 95.5403 138.555 95.6251C138.355 95.7408 138.188 95.8608 138.156 96.047C138.006 95.984 137.826 95.9922 137.632 96.0151Z" fill="#009DA3"/>
<path d="M137.167 96.3766C138.741 96.3766 140.018 95.2728 140.018 93.9112C140.018 92.5496 138.741 91.4458 137.167 91.4458C135.593 91.4458 134.316 92.5496 134.316 93.9112C134.316 95.2728 135.593 96.3766 137.167 96.3766Z" fill="#FFCD93"/>
<path d="M89.6125 116.205C88.2363 117.631 87.9715 119.401 89.0209 120.158C90.0703 120.915 92.0362 120.373 93.4126 118.947C93.9715 118.383 94.3663 117.712 94.5639 116.99L100.307 110.885L97.5092 108.927L91.633 114.875C90.8463 115.172 90.1535 115.628 89.6125 116.205Z" fill="#F7D1B5"/>
<path d="M114.71 86.0278L116.709 92.875L106.926 106.418L96.9399 115.099L93.7031 112.776L103.775 101.938L111.409 87.9735L114.71 86.0278Z" fill="#DEE9DE"/>
<path d="M104.18 74.7117C105.688 74.7086 105.774 74.7173 106.018 74.7117C107.889 74.669 108.378 74.0324 109.327 74.0758C111.02 74.1533 108.785 81.4935 107.856 84.887C106.945 88.2151 110.025 91.1974 110.246 91.4055C113.372 94.3459 118.863 94.8835 119.805 93.6314C120.568 92.6179 117.865 91.0769 118.518 88.8617C119.157 86.6963 122.106 86.9269 122.93 84.887C123.793 82.7507 120.892 81.6732 119.07 76.4606C118.023 73.467 118.208 72.9092 117.231 71.055C114.621 66.0989 101.824 68.209 103.261 72.8039C103.538 73.6927 102.799 74.7146 104.18 74.7117Z" fill="#213650"/>
</g>
<defs>
<clipPath id="clip0_19_5310">
<rect width="142.745" height="120" fill="white" transform="translate(0.626953 0.5)"/>
</clipPath>
</defs>
</svg>
