<svg width="164" height="120" viewBox="0 0 164 120" fill="none" xmlns="http://www.w3.org/2000/svg">
<g clip-path="url(#clip0_19_5356)">
<path d="M18.3257 64.2964C19.0338 72.5013 22.5987 80.43 27.684 86.9874C27.8966 87.2616 28.1118 87.5333 28.3294 87.8025C28.8192 88.4082 29.3216 89.0024 29.8366 89.5852C30.4669 90.3032 31.1154 91.0047 31.7823 91.6897C32.3252 92.2535 32.8808 92.8052 33.449 93.3448C33.8875 93.7657 34.331 94.1784 34.7797 94.5828C40.1764 99.4756 46.376 103.513 52.7636 107.044C65.2293 113.933 78.8929 119.152 93.105 119.912C107.315 120.67 122.15 116.586 132.571 106.861C146.616 93.7562 150.536 71.8975 144.834 53.5242C141.041 41.3007 133.3 30.2429 122.765 23.0208C112.321 15.8615 99.1452 12.639 86.6756 14.7454C76.7213 8.6756 63.6899 8.55943 52.868 13.0523C47.0935 15.4501 41.9114 19.0155 37.3651 23.3236C35.2831 25.3007 33.3349 27.415 31.5337 29.6525C31.3495 29.8791 31.1673 30.1076 30.987 30.3381C30.2315 31.2961 29.5007 32.2738 28.7945 33.2711C27.7808 34.7014 26.8184 36.1635 25.9073 37.6573C25.6567 38.0687 25.408 38.482 25.1651 38.8991C25.0018 39.1791 24.8367 39.461 24.6753 39.7447C24.6717 39.7506 24.6691 39.757 24.6677 39.7638C22.1412 44.2224 20.0759 48.98 18.9996 53.9528C18.8098 54.8327 18.6503 55.7164 18.5269 56.6077V56.6096C18.4187 57.3657 18.3371 58.1257 18.282 58.8894C18.1523 60.69 18.1669 62.4982 18.3257 64.2964Z" fill="#213650"/>
<path opacity="0.3" d="M55.4102 76.6998L83.5918 53.1445L56.2139 77.6432C56.1609 77.7328 56.0873 77.8085 55.9993 77.8639C55.9114 77.9193 55.8115 77.9528 55.708 77.9617C55.6046 77.9706 55.5004 77.9547 55.4043 77.9152C55.3082 77.8756 55.2229 77.8137 55.1554 77.7345C55.088 77.6553 55.0403 77.5611 55.0164 77.4597C54.9924 77.3583 54.993 77.2526 55.0179 77.1514C55.0428 77.0503 55.0914 76.9565 55.1596 76.878C55.2278 76.7994 55.3138 76.7383 55.4102 76.6998Z" fill="#F0F0F0"/>
<path d="M120.037 64.7132C110.707 64.7132 103.143 57.1242 103.143 47.7626C103.143 38.4011 110.707 30.812 120.037 30.812C129.368 30.812 136.932 38.4011 136.932 47.7626C136.932 57.1242 129.368 64.7132 120.037 64.7132Z" fill="#F2F2F2"/>
<path d="M105.042 46.6199C105.042 48.6459 105.44 50.652 106.212 52.5237C106.985 54.3955 108.117 56.0962 109.545 57.5288C110.973 58.9613 112.668 60.0977 114.534 60.8729C116.399 61.6481 118.399 62.047 120.418 62.0469C122.218 62.0459 124.003 61.7301 125.695 61.1136C128.34 60.1468 130.67 58.4705 132.431 56.2672C134.192 54.0639 135.317 51.418 135.684 48.6176C136.05 45.8172 135.644 42.9697 134.509 40.385C133.374 37.8003 131.554 35.5775 129.247 33.9587C126.94 32.3399 124.235 31.387 121.426 31.2039C118.617 31.0207 115.812 31.6143 113.315 32.92C110.819 34.2257 108.728 36.1935 107.269 38.6091C105.81 41.0247 105.04 43.7955 105.042 46.6199Z" fill="white"/>
<path d="M123.075 46.2391C120.454 46.2391 118.329 44.1074 118.329 41.4777C118.329 38.8481 120.454 36.7163 123.075 36.7163C125.696 36.7163 127.82 38.8481 127.82 41.4777C127.82 44.1074 125.696 46.2391 123.075 46.2391Z" fill="#E4E4E4"/>
<path d="M105.642 42.3405C106.671 42.837 107.843 42.9449 108.944 42.6446C110.046 42.3442 111.002 41.6557 111.639 40.7051C112.275 39.7546 112.549 38.6058 112.41 37.4691C112.271 36.3325 111.728 35.2843 110.881 34.5166C108.364 36.5128 106.533 39.2483 105.642 42.3405Z" fill="#F2F2F2"/>
<path d="M115.292 53.4766C114.348 53.4766 113.583 52.7091 113.583 51.7624C113.583 50.8158 114.348 50.0483 115.292 50.0483C116.235 50.0483 117 50.8158 117 51.7624C117 52.7091 116.235 53.4766 115.292 53.4766Z" fill="#E4E4E4"/>
<path d="M122.316 61.4758C122.317 61.6263 122.336 61.7762 122.375 61.9215C123.509 61.7792 124.623 61.5083 125.695 61.114C125.606 60.7004 125.368 60.3345 125.026 60.0866C124.684 59.8388 124.263 59.7265 123.844 59.7714C123.424 59.8163 123.036 60.0152 122.755 60.3299C122.473 60.6445 122.317 61.0527 122.316 61.4758Z" fill="#F2F2F2"/>
<path d="M132.376 45.8581C132.376 46.7278 132.706 47.5649 133.298 48.2C133.89 48.8351 134.7 49.2207 135.565 49.2787C135.957 47.0148 135.843 44.6919 135.231 42.4775C134.433 42.611 133.709 43.0239 133.186 43.6429C132.663 44.2619 132.376 45.0468 132.376 45.8581Z" fill="#F2F2F2"/>
<path d="M48.1175 40.4122C47.7294 40.4122 47.4147 40.0965 47.4147 39.7071C47.4147 39.3177 47.7294 39.002 48.1175 39.002C48.5057 39.002 48.8203 39.3177 48.8203 39.7071C48.8203 40.0965 48.5057 40.4122 48.1175 40.4122Z" fill="#B5C7D9"/>
<path d="M54.6011 23.257C54.3743 23.257 54.1905 23.0726 54.1905 22.8451C54.1905 22.6176 54.3743 22.4331 54.6011 22.4331C54.8279 22.4331 55.0117 22.6176 55.0117 22.8451C55.0117 23.0726 54.8279 23.257 54.6011 23.257Z" fill="#F0F0F0"/>
<path d="M120.47 104.01C120.243 104.01 120.06 103.826 120.06 103.598C120.06 103.371 120.243 103.187 120.47 103.187C120.697 103.187 120.881 103.371 120.881 103.598C120.881 103.826 120.697 104.01 120.47 104.01Z" fill="#F0F0F0"/>
<path d="M52.271 63.5661C52.0443 63.5661 51.8604 63.3817 51.8604 63.1542C51.8604 62.9266 52.0443 62.7422 52.271 62.7422C52.4978 62.7422 52.6816 62.9266 52.6816 63.1542C52.6816 63.3817 52.4978 63.5661 52.271 63.5661Z" fill="#F0F0F0"/>
<path d="M105.256 67.4567C104.868 67.4567 104.553 67.141 104.553 66.7515C104.553 66.3621 104.868 66.0464 105.256 66.0464C105.644 66.0464 105.959 66.3621 105.959 66.7515C105.959 67.141 105.644 67.4567 105.256 67.4567Z" fill="#B5C7D9"/>
<path d="M130.691 82.6517C128.858 82.6517 127.372 81.1609 127.372 79.3219C127.372 77.483 128.858 75.9922 130.691 75.9922C132.524 75.9922 134.01 77.483 134.01 79.3219C134.01 81.1609 132.524 82.6517 130.691 82.6517Z" fill="#009DA3"/>
<path d="M112.498 83.4411C112.271 83.4411 112.087 83.2567 112.087 83.0292C112.087 82.8016 112.271 82.6172 112.498 82.6172C112.724 82.6172 112.908 82.8016 112.908 83.0292C112.908 83.2567 112.724 83.4411 112.498 83.4411Z" fill="#F0F0F0"/>
<path d="M70.7359 19.0671C70.5091 19.0671 70.3253 18.8827 70.3253 18.6551C70.3253 18.4276 70.5091 18.2432 70.7359 18.2432C70.9627 18.2432 71.1465 18.4276 71.1465 18.6551C71.1465 18.8827 70.9627 19.0671 70.7359 19.0671Z" fill="#F0F0F0"/>
<path d="M95.2242 106.867C94.9974 106.867 94.8136 106.683 94.8136 106.455C94.8136 106.228 94.9974 106.043 95.2242 106.043C95.4509 106.043 95.6348 106.228 95.6348 106.455C95.6348 106.683 95.4509 106.867 95.2242 106.867Z" fill="#F0F0F0"/>
<path d="M101.298 22.8762C101.072 22.8762 100.888 22.6917 100.888 22.4642C100.888 22.2367 101.072 22.0522 101.298 22.0522C101.525 22.0522 101.709 22.2367 101.709 22.4642C101.709 22.6917 101.525 22.8762 101.298 22.8762Z" fill="#F0F0F0"/>
<path d="M90.6675 42.8737C90.4408 42.8737 90.2569 42.6893 90.2569 42.4618C90.2569 42.2343 90.4408 42.0498 90.6675 42.0498C90.8943 42.0498 91.0781 42.2343 91.0781 42.4618C91.0781 42.6893 90.8943 42.8737 90.6675 42.8737Z" fill="#F0F0F0"/>
<path d="M106.941 91.9441C106.714 91.9441 106.53 91.7596 106.53 91.5321C106.53 91.3046 106.714 91.1201 106.941 91.1201C107.168 91.1201 107.352 91.3046 107.352 91.5321C107.352 91.7596 107.168 91.9441 106.941 91.9441Z" fill="#F0F0F0"/>
<path d="M58.9136 94.6106C58.6869 94.6106 58.503 94.4261 58.503 94.1986C58.503 93.9711 58.6869 93.7866 58.9136 93.7866C59.1404 93.7866 59.3242 93.9711 59.3242 94.1986C59.3242 94.4261 59.1404 94.6106 58.9136 94.6106Z" fill="#F0F0F0"/>
<path d="M80.1753 70.613C79.9486 70.613 79.7647 70.4286 79.7647 70.201C79.7647 69.9735 79.9486 69.7891 80.1753 69.7891C80.4021 69.7891 80.5859 69.9735 80.5859 70.201C80.5859 70.4286 80.4021 70.613 80.1753 70.613Z" fill="#F0F0F0"/>
<path d="M69.355 42.8064C69.1282 42.8064 68.9444 42.6219 68.9444 42.3944C68.9444 42.1669 69.1282 41.9824 69.355 41.9824C69.5818 41.9824 69.7656 42.1669 69.7656 42.3944C69.7656 42.6219 69.5818 42.8064 69.355 42.8064Z" fill="#F0F0F0"/>
<path d="M49.6839 56.5546C49.2343 56.5546 48.8698 56.1889 48.8698 55.7377C48.8698 55.2866 49.2343 54.9209 49.6839 54.9209C50.1335 54.9209 50.498 55.2866 50.498 55.7377C50.498 56.1889 50.1335 56.5546 49.6839 56.5546Z" fill="#FFCD93"/>
<path d="M82.7132 29.5102C82.2636 29.5102 81.8991 29.1444 81.8991 28.6933C81.8991 28.2422 82.2636 27.8765 82.7132 27.8765C83.1628 27.8765 83.5273 28.2422 83.5273 28.6933C83.5273 29.1444 83.1628 29.5102 82.7132 29.5102Z" fill="#FFCD93"/>
<path d="M82.7132 85.6947C82.2636 85.6947 81.8991 85.329 81.8991 84.8779C81.8991 84.4267 82.2636 84.061 82.7132 84.061C83.1628 84.061 83.5273 84.4267 83.5273 84.8779C83.5273 85.329 83.1628 85.6947 82.7132 85.6947Z" fill="#FFCD93"/>
<path d="M31.9895 89.585C32.3066 89.5853 32.615 89.6892 32.8681 89.8809C33.1211 90.0726 33.3051 90.3418 33.3923 90.6477C33.4307 90.7788 33.4499 90.9148 33.4492 91.0515V93.3446C32.8816 92.8056 32.3261 92.2539 31.7826 91.6895C31.1163 91.0039 30.4677 90.3023 29.8369 89.585H31.9895Z" fill="#6C63FF"/>
<path d="M26.8211 101.5C29.2721 101.5 31.9585 101.407 34.8804 101.221C49.993 100.258 69.5684 96.9108 90.0007 91.7952C110.433 86.6797 129.281 80.4071 143.073 74.1334C149.791 71.0772 154.947 68.1843 158.398 65.5348C162.052 62.7299 163.65 60.2851 163.148 58.2684C162.171 54.3394 153.518 53.4799 146.432 53.4507L146.429 54.0221C156.161 54.0621 161.903 55.6194 162.596 58.4067C163.479 61.9569 156.277 67.4992 142.838 73.613C129.076 79.8729 110.263 86.1335 89.8628 91.241C69.4629 96.3483 49.9235 99.6902 34.8442 100.651C20.1179 101.59 11.165 100.092 10.282 96.5414C9.54897 93.5938 14.3819 89.2516 23.8904 84.3144L23.6287 83.8071C16.7196 87.3945 8.69986 92.5398 9.72943 96.6798C10.2311 98.6965 12.7866 100.101 17.3253 100.855C19.9124 101.285 23.0902 101.5 26.8211 101.5Z" fill="#009DA3"/>
<path d="M27.5926 58.9043C17.0565 58.9043 8.5153 50.3346 8.5153 39.7634C8.5153 29.1922 17.0565 20.6226 27.5926 20.6226C38.1287 20.6226 46.6699 29.1922 46.6699 39.7634C46.6699 50.3346 38.1287 58.9043 27.5926 58.9043Z" fill="white"/>
<path d="M27.593 20.337C31.4225 20.337 35.1659 21.4764 38.35 23.611C41.5341 25.7456 44.0157 28.7796 45.4812 32.3294C46.9467 35.8791 47.3301 39.7851 46.583 43.5535C45.8359 47.3219 43.9919 50.7834 41.2841 53.5002C38.5762 56.2171 35.1262 58.0673 31.3704 58.8168C27.6145 59.5664 23.7214 59.1817 20.1835 57.7113C16.6455 56.241 13.6216 53.7511 11.4941 50.5564C9.36654 47.3617 8.23098 43.6058 8.23098 39.7636C8.22183 37.2099 8.71639 34.6796 9.68618 32.3185C10.656 29.9574 12.0818 27.8122 13.8816 26.0065C15.6813 24.2007 17.8194 22.7701 20.1727 21.7971C22.5259 20.8241 25.0478 20.3279 27.593 20.337ZM27.593 58.6187C31.3098 58.6187 34.9432 57.5129 38.0336 55.4411C41.124 53.3692 43.5327 50.4245 44.9551 46.9791C46.3775 43.5338 46.7496 39.7427 46.0245 36.0851C45.2994 32.4276 43.5096 29.0679 40.8814 26.431C38.2532 23.794 34.9047 21.9982 31.2593 21.2707C27.6139 20.5432 23.8353 20.9166 20.4014 22.3437C16.9675 23.7708 14.0325 26.1875 11.9676 29.2882C9.90262 32.3889 8.80045 36.0344 8.80045 39.7636C8.79086 42.2424 9.27039 44.6985 10.2114 46.9905C11.1524 49.2825 12.5363 51.3649 14.2833 53.1177C16.0302 54.8704 18.1057 56.2589 20.3901 57.2031C22.6744 58.1472 25.1225 58.6284 27.593 58.6187Z" fill="#213650"/>
<path d="M44.336 44.348C44.4233 44.3479 44.5079 44.3175 44.5756 44.2621C44.6433 44.2067 44.6898 44.1295 44.7074 44.0437C45.2531 41.2548 45.1546 38.3776 44.4195 35.6328C43.6843 32.8881 42.3321 30.3489 40.4666 28.2101C40.3995 28.135 40.3055 28.0897 40.2052 28.0841C40.1049 28.0785 40.0064 28.113 39.9314 28.18C39.8564 28.2471 39.811 28.3413 39.805 28.4419C39.7991 28.5425 39.8331 28.6414 39.8997 28.7169C41.6874 30.7665 42.9833 33.1998 43.6877 35.8301C44.3922 38.4604 44.4866 41.2177 43.9637 43.8903C43.9524 43.9457 43.9536 44.0029 43.967 44.0578C43.9805 44.1127 44.006 44.1639 44.0416 44.2077C44.0772 44.2515 44.1221 44.2868 44.173 44.3111C44.2239 44.3354 44.2796 44.348 44.336 44.348Z" fill="#213650"/>
<path d="M27.6051 57.5464C20.9084 57.5464 15.4797 52.0996 15.4797 45.3806C15.4797 38.6616 20.9084 33.2148 27.6051 33.2148C34.3017 33.2148 39.7305 38.6616 39.7305 45.3806C39.7305 52.0996 34.3017 57.5464 27.6051 57.5464Z" fill="#FFCD93"/>
<path d="M31.4586 49.9736C32.2446 49.9517 33.2228 49.9244 33.9764 49.372C34.2008 49.2008 34.3852 48.9824 34.5166 48.7322C34.648 48.482 34.7233 48.2059 34.7372 47.9234C34.7509 47.7226 34.718 47.5214 34.6413 47.3355C34.5646 47.1495 34.446 46.9839 34.2949 46.8516C33.9013 46.5179 33.3266 46.4396 32.7072 46.6222L33.3489 41.9168L32.8778 41.8521L32.1234 47.3839L32.5168 47.2028C32.9729 46.9929 33.5989 46.8861 33.988 47.2159C34.0835 47.3022 34.1579 47.4093 34.2055 47.5291C34.253 47.6489 34.2724 47.7781 34.262 47.9066C34.2505 48.1169 34.194 48.3222 34.0963 48.5086C33.9986 48.695 33.862 48.858 33.6959 48.9867C33.1094 49.4165 32.3297 49.472 31.4454 49.4968L31.4586 49.9736Z" fill="#213650"/>
<path d="M35.6793 42.3228H38.2402V42.7998H35.6793V42.3228Z" fill="#213650"/>
<path d="M27.5953 42.3228H30.1562V42.7998H27.5953V42.3228Z" fill="#213650"/>
<path d="M27.0969 60.5537H38.0877C38.4973 60.5541 38.8902 60.7175 39.1798 61.0082C39.4695 61.2989 39.6325 61.693 39.6328 62.104V86.5453C39.6317 88.2015 39.179 89.826 38.3238 91.2427C37.4686 92.6594 36.2434 93.8143 34.7809 94.5825C34.331 94.1787 33.8875 93.7661 33.4502 93.3445C32.8827 92.8056 32.3271 92.2539 31.7836 91.6895C31.1173 91.0038 30.4687 90.3023 29.8379 89.5849C29.3216 89.0021 28.8192 88.4079 28.3307 87.8023C28.1124 87.5337 27.8973 87.262 27.6853 86.9871C22.5999 80.4297 19.035 72.501 18.327 64.2962C19.4622 63.1119 20.8242 62.17 22.3312 61.5269C23.8382 60.8838 25.4592 60.5528 27.0969 60.5537Z" fill="#213650"/>
<path d="M26.695 65.6543C26.9565 65.3975 27.266 65.195 27.6058 65.0587C27.9456 64.9224 28.3089 64.8549 28.6749 64.8601C29.3108 64.865 29.9254 65.0912 30.4136 65.5001C30.4917 65.5635 30.5659 65.6315 30.6357 65.7039L39.6315 74.96L46.1557 81.6736C46.2548 81.7739 46.3369 81.8897 46.3987 82.0164C46.4965 82.2127 46.5466 82.4294 46.5449 82.6488C46.5429 82.8292 46.5053 83.0074 46.4343 83.1731C46.3633 83.3389 46.2602 83.4888 46.1311 83.6144L45.8748 83.8658L44.0145 85.6846L44.0126 85.6827C43.7627 85.8863 43.4499 85.9961 43.128 85.9932C42.9482 85.9912 42.7706 85.9535 42.6054 85.8822C42.4402 85.811 42.2907 85.7076 42.1656 85.578L41.8638 85.2694L39.7036 83.0468L39.6315 82.9725L26.6456 69.6101C26.1295 69.0789 25.8448 68.3638 25.854 67.622C25.8633 66.8802 26.1658 66.1724 26.695 65.6543Z" fill="#009DA3"/>
<path d="M26.787 39.705C26.386 38.8543 26.7972 37.9456 27.5015 37.4022C28.389 36.7175 29.5368 36.8307 30.5463 37.1548C31.6515 37.5097 32.7318 38.1483 33.9259 38.1115C34.3514 38.1039 34.7648 37.9675 35.1117 37.7202C35.4587 37.4728 35.7232 37.1261 35.8704 36.7255C36.5099 35.0801 35.7877 33.2411 34.6746 31.9932C34.0462 31.2787 33.2695 30.7108 32.399 30.3296C31.5285 29.9484 30.5854 29.763 29.6359 29.7866C28.5521 29.8406 27.4984 30.1628 26.5687 30.7245C25.6391 31.2861 24.8624 32.0699 24.3079 33.0058C24.2684 33.0697 24.206 33.116 24.1335 33.1351C24.061 33.1541 23.984 33.1446 23.9184 33.1083C23.0735 32.7294 22.1622 32.5222 21.237 32.4989C20.3119 32.4755 19.3913 32.6364 18.5285 32.9723C17.2342 33.5016 16.131 34.4135 15.3654 35.5869C14.5998 36.7602 14.2081 38.1395 14.2422 39.5415C14.2517 39.9093 13.6822 39.9091 13.6728 39.5415C13.6372 37.5815 14.3581 35.6835 15.6847 34.2444C16.3583 33.5268 17.1685 32.952 18.0673 32.554C18.9661 32.1559 19.9353 31.9427 20.9176 31.927C22.0515 31.9028 23.176 32.1381 24.2058 32.615L23.8162 32.7174C24.3295 31.8505 25.0191 31.1018 25.84 30.5201C26.6608 29.9383 27.5946 29.5366 28.5806 29.341C29.5568 29.1583 30.5609 29.1883 31.5246 29.4291C32.4883 29.6699 33.3891 30.1158 34.1659 30.7366C35.6279 31.8845 36.7358 33.6659 36.6669 35.5763C36.637 36.4029 36.3922 37.2515 35.8201 37.8676C35.0875 38.6566 33.9936 38.7931 32.983 38.5909C31.6399 38.3222 30.4136 37.4359 29.0135 37.4632C28.7392 37.4634 28.4681 37.5219 28.218 37.6351C27.968 37.7482 27.7447 37.9132 27.5629 38.1194C27.2546 38.4685 27.0686 38.9708 27.2787 39.4166C27.4346 39.7472 26.9438 40.0375 26.787 39.705Z" fill="#213650"/>
<path d="M117.669 108.438C124.426 108.438 130.709 108.205 136.333 107.736C143.684 107.122 149.509 106.135 153.647 104.803C158.027 103.393 160.351 101.629 160.554 99.5603C160.949 95.5306 153.087 91.8041 146.423 89.3875L146.229 89.925C155.382 93.2435 160.268 96.6455 159.987 99.5045C159.63 103.146 150.991 105.938 136.286 107.166C121.228 108.423 101.412 107.978 80.4873 105.911C59.563 103.845 40.0405 100.406 25.516 96.2272C11.3312 92.1465 3.40052 87.7177 3.75775 84.0763C4.05435 81.053 10.0604 78.5925 20.6695 77.1477L20.5929 76.5815C12.8842 77.6313 3.60759 79.7739 3.19106 84.0203C2.98807 86.0889 4.92477 88.2736 8.94704 90.5137C12.7463 92.6295 18.2681 94.7366 25.3589 96.7764C39.9156 100.964 59.4741 104.41 80.4315 106.48C93.5786 107.778 106.294 108.438 117.669 108.438Z" fill="#009DA3"/>
<path d="M4.07973 86.0799C2.24686 86.0799 0.761029 84.5891 0.761029 82.7502C0.761029 80.9112 2.24686 79.4204 4.07973 79.4204C5.9126 79.4204 7.39844 80.9112 7.39844 82.7502C7.39844 84.5891 5.9126 86.0799 4.07973 86.0799Z" fill="#009DA3"/>
<path d="M100.32 6.65951C98.4871 6.65951 97.0013 5.16873 97.0013 3.32976C97.0013 1.49078 98.4871 0 100.32 0C102.153 0 103.639 1.49078 103.639 3.32976C103.639 5.16873 102.153 6.65951 100.32 6.65951Z" fill="#B5C7D9"/>
<path d="M159.545 85.8895C157.712 85.8895 156.226 84.3987 156.226 82.5597C156.226 80.7208 157.712 79.23 159.545 79.23C161.377 79.23 162.863 80.7208 162.863 82.5597C162.863 84.3987 161.377 85.8895 159.545 85.8895Z" fill="#B5C7D9"/>
<path d="M139.045 22.6997C137.923 22.6997 137.013 21.7871 137.013 20.6614C137.013 19.5356 137.923 18.623 139.045 18.623C140.167 18.623 141.076 19.5356 141.076 20.6614C141.076 21.7871 140.167 22.6997 139.045 22.6997Z" fill="#FFCD93"/>
<path d="M148.535 100.025C147.413 100.025 146.503 99.1123 146.503 97.9866C146.503 96.8608 147.413 95.9482 148.535 95.9482C149.657 95.9482 150.566 96.8608 150.566 97.9866C150.566 99.1123 149.657 100.025 148.535 100.025Z" fill="#FFCD93"/>
<path d="M9.96453 66.6948C8.84253 66.6948 7.93298 65.7822 7.93298 64.6565C7.93298 63.5308 8.84253 62.6182 9.96453 62.6182C11.0865 62.6182 11.9961 63.5308 11.9961 64.6565C11.9961 65.7822 11.0865 66.6948 9.96453 66.6948Z" fill="#FFCD93"/>
<path d="M40.7145 117.315C38.8816 117.315 37.3958 115.824 37.3958 113.985C37.3958 112.146 38.8816 110.655 40.7145 110.655C42.5474 110.655 44.0332 112.146 44.0332 113.985C44.0332 115.824 42.5474 117.315 40.7145 117.315Z" fill="#B5C7D9"/>
</g>
<defs>
<clipPath id="clip0_19_5356">
<rect width="162.478" height="120" fill="white" transform="matrix(-1 0 0 1 163.238 0)"/>
</clipPath>
</defs>
</svg>
