<svg width="162" height="121" viewBox="0 0 162 121" fill="none" xmlns="http://www.w3.org/2000/svg">
<g clip-path="url(#clip0_19_5409)">
<path d="M43.2647 89.1246C19.6841 89.1246 0.5 69.6615 0.5 45.7381C0.5 21.8146 19.6841 2.35156 43.2647 2.35156C50.1163 2.3587 56.8663 4.03229 62.9489 7.23202C69.0315 10.4317 74.2692 15.0643 78.2231 20.7414L77.8185 21.0314C73.9105 15.42 68.7333 10.8409 62.7211 7.67817C56.709 4.51541 50.037 2.86114 43.2647 2.85406C19.9574 2.85406 0.995298 22.0919 0.995298 45.7381C0.995298 69.3843 19.9574 88.6221 43.2647 88.6221C49.7573 88.6436 56.1665 87.1375 61.9887 84.2223C67.811 81.307 72.8877 77.0619 76.8201 71.8205L77.2129 72.1262C73.2345 77.4291 68.0983 81.7239 62.208 84.6733C56.3176 87.6227 49.8334 89.1464 43.2647 89.1246Z" fill="#B5C7D9"/>
<path d="M60.9447 38.4725C60.4759 38.4725 60.0176 38.3315 59.6277 38.0672C59.2379 37.803 58.9341 37.4274 58.7547 36.9879C58.5752 36.5485 58.5283 36.0649 58.6198 35.5984C58.7112 35.1319 58.937 34.7033 59.2685 34.367C59.6 34.0307 60.0224 33.8016 60.4823 33.7088C60.9421 33.616 61.4187 33.6636 61.8519 33.8457C62.285 34.0277 62.6552 34.3359 62.9157 34.7314C63.1762 35.1269 63.3152 35.5919 63.3152 36.0676C63.3152 36.7054 63.0655 37.3171 62.6209 37.7681C62.1764 38.2191 61.5734 38.4725 60.9447 38.4725Z" fill="#B5C7D9"/>
<path d="M61.7708 36.5707L61.2748 36.0675L61.7708 35.5642C61.7926 35.5422 61.81 35.5161 61.8218 35.4873C61.8337 35.4584 61.8398 35.4275 61.8398 35.3963C61.8399 35.3651 61.8338 35.3342 61.8221 35.3053C61.8103 35.2765 61.7931 35.2503 61.7713 35.2282C61.7496 35.2061 61.7237 35.1886 61.6953 35.1767C61.6669 35.1648 61.6364 35.1586 61.6056 35.1587C61.5748 35.1587 61.5444 35.165 61.516 35.177C61.4876 35.189 61.4618 35.2066 61.4401 35.2287L60.944 35.732L60.448 35.2287C60.4042 35.1842 60.3447 35.1592 60.2827 35.1592C60.2206 35.1592 60.1612 35.1842 60.1173 35.2287C60.0735 35.2732 60.0488 35.3336 60.0488 35.3965C60.0488 35.4594 60.0735 35.5197 60.1173 35.5642L60.6134 36.0675L60.1173 36.5707C60.0737 36.6153 60.0493 36.6755 60.0494 36.7383C60.0495 36.8011 60.0741 36.8613 60.1179 36.9057C60.1616 36.9501 60.2209 36.9751 60.2828 36.9752C60.3447 36.9753 60.4041 36.9505 60.448 36.9062L60.9441 36.403L61.4401 36.9062C61.4618 36.9283 61.4876 36.9457 61.516 36.9577C61.5443 36.9696 61.5747 36.9757 61.6054 36.9757C61.6362 36.9757 61.6666 36.9696 61.6949 36.9577C61.7233 36.9457 61.7491 36.9283 61.7708 36.9062C61.7925 36.8842 61.8097 36.8581 61.8215 36.8293C61.8332 36.8005 61.8393 36.7696 61.8393 36.7385C61.8393 36.7073 61.8332 36.6765 61.8215 36.6477C61.8097 36.6189 61.7925 36.5928 61.7708 36.5707Z" fill="white"/>
<path d="M49.1549 10.072C51.7603 10.072 53.8723 7.92923 53.8723 5.286C53.8723 2.64277 51.7603 0.5 49.1549 0.5C46.5496 0.5 44.4375 2.64277 44.4375 5.286C44.4375 7.92923 46.5496 10.072 49.1549 10.072Z" fill="#B5C7D9"/>
<path d="M48.5109 7.77679C48.4294 7.77679 48.3491 7.75755 48.2762 7.72058C48.2034 7.68361 48.14 7.62993 48.0911 7.5638L46.8042 5.82285C46.7628 5.76692 46.7327 5.70327 46.7156 5.63555C46.6985 5.56782 46.6947 5.49734 46.7045 5.42814C46.7142 5.35893 46.7373 5.29235 46.7724 5.23219C46.8076 5.17204 46.854 5.11948 46.9091 5.07754C46.9643 5.03559 47.027 5.00508 47.0937 4.98773C47.1605 4.97038 47.23 4.96654 47.2982 4.97643C47.3664 4.98632 47.432 5.00974 47.4913 5.04536C47.5506 5.08099 47.6024 5.12811 47.6438 5.18404L48.4857 6.32292L50.6483 3.032C50.7259 2.91554 50.8458 2.83496 50.9818 2.80785C51.1177 2.78073 51.2588 2.80928 51.3741 2.88727C51.4894 2.96525 51.5696 3.08634 51.5972 3.22411C51.6248 3.36188 51.5976 3.50514 51.5215 3.62263L48.9476 7.53971C48.901 7.61055 48.8384 7.66904 48.7649 7.71026C48.6915 7.75148 48.6094 7.77424 48.5255 7.77662L48.5109 7.77679Z" fill="white"/>
<path d="M54.9317 13.9204H43.5875C42.8941 13.9204 42.332 14.4907 42.332 15.1941V15.6525C42.332 16.356 42.8941 16.9262 43.5875 16.9262H54.9317C55.625 16.9262 56.1871 16.356 56.1871 15.6525V15.1941C56.1871 14.4907 55.625 13.9204 54.9317 13.9204Z" fill="#B5C7D9"/>
<path d="M61.9676 19.9321H36.5504C35.857 19.9321 35.2949 20.5024 35.2949 21.2058V21.6642C35.2949 22.3677 35.857 22.938 36.5504 22.938H61.9676C62.6609 22.938 63.223 22.3677 63.223 21.6642V21.2058C63.223 20.5024 62.6609 19.9321 61.9676 19.9321Z" fill="#B5C7D9"/>
<path d="M61.9676 25.9438H36.5504C35.857 25.9438 35.2949 26.5141 35.2949 27.2176V27.676C35.2949 28.3794 35.857 28.9497 36.5504 28.9497H61.9676C62.6609 28.9497 63.223 28.3794 63.223 27.676V27.2176C63.223 26.5141 62.6609 25.9438 61.9676 25.9438Z" fill="#B5C7D9"/>
<path d="M46.5072 90.0409C46.0384 90.0409 45.5801 89.8998 45.1902 89.6356C44.8004 89.3713 44.4966 88.9957 44.3172 88.5563C44.1377 88.1168 44.0908 87.6333 44.1823 87.1667C44.2737 86.7002 44.4995 86.2717 44.831 85.9354C45.1625 85.599 45.5849 85.37 46.0448 85.2772C46.5046 85.1844 46.9812 85.232 47.4144 85.414C47.8475 85.5961 48.2177 85.9043 48.4782 86.2998C48.7387 86.6953 48.8777 87.1603 48.8777 87.6359C48.8777 88.2738 48.628 88.8855 48.1834 89.3365C47.7389 89.7875 47.1359 90.0409 46.5072 90.0409Z" fill="#B5C7D9"/>
<path d="M47.3352 88.139L46.8392 87.6358L47.3352 87.1325C47.3791 87.088 47.4037 87.0277 47.4037 86.9648C47.4037 86.9019 47.3791 86.8415 47.3352 86.797C47.2914 86.7525 47.2319 86.7275 47.1699 86.7275C47.1079 86.7275 47.0484 86.7525 47.0045 86.797L46.5085 87.3003L46.0125 86.797C45.9686 86.7525 45.9091 86.7275 45.8471 86.7275C45.7851 86.7275 45.7256 86.7525 45.6818 86.797C45.6379 86.8415 45.6133 86.9019 45.6133 86.9648C45.6133 87.0277 45.6379 87.088 45.6818 87.1325L46.1778 87.6358L45.6818 88.139C45.6379 88.1835 45.6133 88.2439 45.6133 88.3068C45.6133 88.3697 45.6379 88.43 45.6818 88.4745C45.7256 88.519 45.7851 88.544 45.8471 88.544C45.9091 88.544 45.9686 88.519 46.0125 88.4745L46.5085 87.9713L47.0045 88.4745C47.0484 88.519 47.1079 88.544 47.1699 88.544C47.2319 88.544 47.2914 88.519 47.3352 88.4745C47.3791 88.43 47.4037 88.3697 47.4037 88.3068C47.4037 88.2439 47.3791 88.1835 47.3352 88.139Z" fill="white"/>
<path d="M34.7194 61.6404C37.3247 61.6404 39.4368 59.4976 39.4368 56.8544C39.4368 54.2111 37.3247 52.0684 34.7194 52.0684C32.114 52.0684 30.002 54.2111 30.002 56.8544C30.002 59.4976 32.114 61.6404 34.7194 61.6404Z" fill="#B5C7D9"/>
<path d="M34.0753 59.3452C33.9939 59.3452 33.9135 59.3259 33.8407 59.2889C33.7678 59.252 33.7045 59.1983 33.6556 59.1322L32.3686 57.3912C32.3273 57.3353 32.2972 57.2716 32.2801 57.2039C32.263 57.1362 32.2592 57.0657 32.2689 56.9965C32.2787 56.9273 32.3018 56.8607 32.3369 56.8006C32.372 56.7404 32.4185 56.6879 32.4736 56.6459C32.5287 56.604 32.5914 56.5735 32.6582 56.5561C32.7249 56.5388 32.7944 56.5349 32.8626 56.5448C32.9308 56.5547 32.9965 56.5781 33.0558 56.6137C33.1151 56.6494 33.1669 56.6965 33.2082 56.7524L34.0502 57.8913L36.2127 54.6004C36.2507 54.5417 36.2998 54.4912 36.3571 54.4519C36.4144 54.4125 36.4788 54.385 36.5467 54.371C36.6145 54.357 36.6843 54.3568 36.7523 54.3703C36.8202 54.3838 36.8848 54.4108 36.9424 54.4498C36.9999 54.4887 37.0494 54.5388 37.0878 54.5972C37.1262 54.6556 37.1528 54.7212 37.1662 54.7901C37.1795 54.859 37.1793 54.9299 37.1656 54.9987C37.1518 55.0675 37.1247 55.1328 37.086 55.191L34.512 59.1081C34.4654 59.1789 34.4028 59.2374 34.3294 59.2786C34.2559 59.3198 34.1738 59.3426 34.0899 59.345L34.0753 59.3452Z" fill="white"/>
<path d="M40.4941 65.4888H29.15C28.4566 65.4888 27.8945 66.059 27.8945 66.7625V67.2209C27.8945 67.9243 28.4566 68.4946 29.15 68.4946H40.4941C41.1875 68.4946 41.7496 67.9243 41.7496 67.2209V66.7625C41.7496 66.059 41.1875 65.4888 40.4941 65.4888Z" fill="#B5C7D9"/>
<path d="M47.532 71.5005H22.1148C21.4215 71.5005 20.8594 72.0708 20.8594 72.7742V73.2326C20.8594 73.9361 21.4215 74.5063 22.1148 74.5063H47.532C48.2254 74.5063 48.7875 73.9361 48.7875 73.2326V72.7742C48.7875 72.0708 48.2254 71.5005 47.532 71.5005Z" fill="#B5C7D9"/>
<path d="M47.532 77.5122H22.1148C21.4215 77.5122 20.8594 78.0825 20.8594 78.7859V79.2443C20.8594 79.9478 21.4215 80.518 22.1148 80.518H47.532C48.2254 80.518 48.7875 79.9478 48.7875 79.2443V78.7859C48.7875 78.0825 48.2254 77.5122 47.532 77.5122Z" fill="#B5C7D9"/>
<path d="M95.5449 79.7798C94.8975 79.7798 94.2646 79.585 93.7263 79.2201C93.188 78.8552 92.7684 78.3365 92.5207 77.7296C92.2729 77.1228 92.2081 76.455 92.3344 75.8108C92.4607 75.1666 92.7725 74.5749 93.2303 74.1104C93.6881 73.646 94.2713 73.3297 94.9063 73.2015C95.5413 73.0734 96.1995 73.1391 96.7976 73.3905C97.3958 73.6419 97.907 74.0675 98.2667 74.6137C98.6264 75.1598 98.8184 75.8019 98.8184 76.4587C98.8184 77.3395 98.4735 78.1843 97.8596 78.8071C97.2457 79.4299 96.4131 79.7798 95.5449 79.7798Z" fill="#B5C7D9"/>
<path d="M96.6865 77.1537L96.0015 76.4588L96.6865 75.7638C96.7471 75.7024 96.7811 75.6191 96.7811 75.5322C96.7811 75.4453 96.7471 75.362 96.6865 75.3005C96.6259 75.2391 96.5438 75.2046 96.4582 75.2046C96.3725 75.2046 96.2904 75.2391 96.2298 75.3005L95.5448 75.9955L94.8598 75.3005C94.7993 75.2391 94.7172 75.2046 94.6315 75.2046C94.5459 75.2046 94.4637 75.2391 94.4032 75.3005C94.3426 75.362 94.3086 75.4453 94.3086 75.5322C94.3086 75.6191 94.3426 75.7024 94.4032 75.7638L95.0882 76.4588L94.4032 77.1537C94.3426 77.2152 94.3086 77.2985 94.3086 77.3854C94.3086 77.4723 94.3426 77.5556 94.4032 77.6171C94.4637 77.6785 94.5459 77.713 94.6315 77.713C94.7172 77.713 94.7993 77.6785 94.8598 77.6171L95.5448 76.9221L96.2298 77.6171C96.2904 77.6785 96.3725 77.713 96.4581 77.713C96.5438 77.713 96.6259 77.6785 96.6865 77.6171C96.747 77.5556 96.781 77.4723 96.781 77.3854C96.781 77.2985 96.747 77.2152 96.6865 77.1537Z" fill="white"/>
<path d="M81.2838 40.5618C84.8816 40.5618 87.7981 37.6028 87.7981 33.9528C87.7981 30.3027 84.8816 27.3438 81.2838 27.3438C77.6861 27.3438 74.7695 30.3027 74.7695 33.9528C74.7695 37.6028 77.6861 40.5618 81.2838 40.5618Z" fill="#FFCD93"/>
<path d="M80.3943 37.3924C80.2818 37.3924 80.1709 37.3658 80.0703 37.3147C79.9697 37.2637 79.8822 37.1896 79.8147 37.0982L78.0375 34.6941C77.9804 34.6169 77.9389 34.529 77.9152 34.4355C77.8916 34.342 77.8864 34.2447 77.8999 34.1491C77.9133 34.0535 77.9452 33.9616 77.9937 33.8785C78.0422 33.7954 78.1063 33.7229 78.1824 33.6649C78.2586 33.607 78.3452 33.5649 78.4374 33.5409C78.5295 33.517 78.6255 33.5117 78.7197 33.5253C78.8139 33.539 78.9045 33.5713 78.9864 33.6205C79.0683 33.6697 79.1398 33.7348 79.1969 33.812L80.3596 35.3847L83.3458 30.8402C83.3986 30.7599 83.4665 30.6909 83.5455 30.6371C83.6246 30.5834 83.7134 30.5459 83.8067 30.527C83.9 30.508 83.9961 30.5079 84.0895 30.5267C84.1828 30.5454 84.2717 30.5826 84.3509 30.6362C84.4301 30.6897 84.4981 30.7586 84.551 30.8388C84.604 30.9191 84.6408 31.0091 84.6595 31.1038C84.6781 31.1985 84.6782 31.296 84.6597 31.3907C84.6412 31.4854 84.6045 31.5755 84.5517 31.6558L80.9973 37.065C80.933 37.1628 80.8465 37.2435 80.7451 37.3005C80.6437 37.3574 80.5304 37.3888 80.4145 37.3921C80.4078 37.3922 80.401 37.3924 80.3943 37.3924Z" fill="white"/>
<path d="M89.7384 45.876H73.1168C72.4234 45.876 71.8613 46.4462 71.8613 47.1497V48.753C71.8613 49.4565 72.4234 50.0267 73.1168 50.0267H89.7384C90.4318 50.0267 90.9939 49.4565 90.9939 48.753V47.1497C90.9939 46.4462 90.4318 45.876 89.7384 45.876Z" fill="#213650"/>
<path d="M99.4551 54.1772H63.4C62.7066 54.1772 62.1445 54.7475 62.1445 55.451V57.0543C62.1445 57.7577 62.7066 58.328 63.4 58.328H99.4551C100.148 58.328 100.711 57.7577 100.711 57.0543V55.451C100.711 54.7475 100.148 54.1772 99.4551 54.1772Z" fill="#213650"/>
<path d="M99.4551 62.479H63.4C62.7066 62.479 62.1445 63.0493 62.1445 63.7527V65.3561C62.1445 66.0595 62.7066 66.6298 63.4 66.6298H99.4551C100.148 66.6298 100.711 66.0595 100.711 65.3561V63.7527C100.711 63.0493 100.148 62.479 99.4551 62.479Z" fill="#213650"/>
<path d="M112.109 116.989L108.95 116.989L107.447 104.626L112.11 104.627L112.109 116.989Z" fill="#F7D1B5"/>
<path d="M112.025 115.942L108.652 114.55L108.556 114.51L106.693 115.942C105.642 115.942 104.634 116.366 103.89 117.12C103.146 117.875 102.729 118.898 102.729 119.964V120.095H112.914V115.942H112.025Z" fill="#213650"/>
<path d="M138.811 114.304L135.794 115.255L130.742 103.902L135.195 102.499L138.811 114.304Z" fill="#F7D1B5"/>
<path d="M138.425 113.33L134.796 113.016L134.692 113.007L133.333 114.935C132.329 115.252 131.49 115.96 131.001 116.904C130.511 117.849 130.411 118.951 130.723 119.97L130.762 120.095L140.489 117.028L139.274 113.062L138.425 113.33Z" fill="#213650"/>
<path d="M126.171 53.6611L127.456 57.3685V59.3725L127.277 61.5763L129.266 68.9262L130.826 85.134L138.677 109.126L132.657 110.885L117.288 71.684L112.434 111.335L106.929 111.186C106.929 111.186 105.987 108.875 106.235 107.619C106.482 106.362 106.482 107.87 106.482 106.362C106.482 104.855 105.409 105.51 106.193 104.303C106.977 103.096 106.88 102.04 106.929 101.312C106.977 100.584 106.482 71.1875 106.482 70.1825C106.482 69.1775 106.311 69.3976 106.396 68.4081C106.482 67.4187 107.571 67.8255 107.274 66.1146C106.977 64.4037 106.88 64.7028 106.929 63.4226C106.977 62.1425 107.66 54.6364 107.66 54.6364L126.171 53.6611Z" fill="#213650"/>
<path d="M105.568 54.867L116.604 44.0696L119.663 35.2829L115.151 33.2925C112.834 35.5447 110.329 42.5596 110.329 42.5596L102.735 52.3616C102.675 52.3822 102.616 52.404 102.558 52.4302C102.216 52.5832 101.919 52.8231 101.695 53.1268C101.471 53.4305 101.328 53.7877 101.28 54.1638C101.232 54.5399 101.28 54.9222 101.42 55.2738C101.56 55.6255 101.787 55.9345 102.08 56.171C102.372 56.4075 102.719 56.5636 103.088 56.6241C103.457 56.6847 103.835 56.6476 104.186 56.5165C104.537 56.3854 104.848 56.1647 105.091 55.8757C105.333 55.5868 105.497 55.2394 105.568 54.867Z" fill="#F7D1B5"/>
<path d="M113.881 34.2736L119.604 36.1169L119.625 36.1132C121.755 35.7512 123.523 32.2217 124.63 29.3246C124.995 28.369 124.988 27.3087 124.611 26.358C124.235 25.4073 123.516 24.6372 122.601 24.2033C121.924 23.8878 121.174 23.7708 120.435 23.8654C119.695 23.96 118.997 24.2625 118.419 24.7387L115.48 27.1749L113.881 34.2736Z" fill="#213650"/>
<path d="M127.143 58.4234L127.176 58.3783C128.962 55.9758 126.52 50.0262 126.15 49.1633L127.811 48.6643L127.521 45.4573L127.382 44.0272L128.673 42.7835L128.677 42.7518L129.565 36.3422L130.726 32.0999C131.164 30.4962 131.173 28.8031 130.753 27.1945C130.333 25.5859 129.498 24.1198 128.335 22.9466L125.96 20.5547L123.116 16.037L118.346 15.9121L116.63 19.0034C115.035 19.3337 113.605 20.2212 112.589 21.5113C111.572 22.8015 111.034 24.4126 111.068 26.0638L111.23 34.2934L109.518 44.4899L109.47 46.342L107.79 48.1405L108.101 49.9587L106.844 50.4665L106.229 53.0501C105.994 53.3482 104.444 55.3367 104.43 55.8911C104.428 55.9743 104.486 56.0563 104.614 56.149C105.617 56.8775 111.227 58.4561 113.752 57.5071C116.441 56.497 126.982 58.394 127.088 58.4133L127.143 58.4234Z" fill="#DEE9DE"/>
<path d="M115.451 32.335L113.014 27.4067C109.478 27.6518 102.459 31.8004 102.459 31.8004L89.1781 34.6571C88.7847 34.5037 88.3584 34.4581 87.9421 34.525C87.5258 34.5918 87.1342 34.7688 86.8067 35.038C86.4792 35.3072 86.2275 35.6592 86.0767 36.0585C85.9259 36.4579 85.8815 36.8904 85.9479 37.3127C86.0143 37.735 86.1892 38.1321 86.455 38.464C86.7207 38.7959 87.068 39.0509 87.4617 39.2034C87.8555 39.3559 88.282 39.4004 88.6981 39.3325C89.1142 39.2646 89.5054 39.0867 89.8322 38.8167L106.726 37.5882L115.451 32.335Z" fill="#F7D1B5"/>
<path d="M114.467 33.1442L120.83 28.3466L121.951 24.2485C122.168 23.4432 122.159 22.5923 121.925 21.792C121.69 20.9916 121.24 20.2738 120.624 19.7196C119.785 18.974 118.698 18.5796 117.583 18.6161C116.468 18.6526 115.408 19.1173 114.618 19.9162C112.223 22.3411 109.492 25.7241 110.079 28.07L110.085 28.0938L114.467 33.1442Z" fill="#DEE9DE"/>
<path d="M120.889 14.792C124.014 14.792 126.547 12.2218 126.547 9.05129C126.547 5.88077 124.014 3.31055 120.889 3.31055C117.764 3.31055 115.23 5.88077 115.23 9.05129C115.23 12.2218 117.764 14.792 120.889 14.792Z" fill="#F7D1B5"/>
<path d="M124.612 15.0551C123.665 14.604 122.56 14.8781 121.515 14.9199C120.47 14.9616 119.204 14.5619 118.983 13.5252C118.819 12.7586 119.311 11.9184 119.001 11.2C118.662 10.4166 117.646 10.3051 116.831 10.0858C115.81 9.7863 114.909 9.16435 114.259 8.31017C113.61 7.45599 113.245 6.41404 113.219 5.33558C113.163 5.76362 113.885 5.90421 114.122 5.54554C114.359 5.18687 114.196 4.69044 113.934 4.34962C113.673 4.0088 113.32 3.73662 113.123 3.35387C112.925 2.97111 112.964 2.40267 113.349 2.21847C113.546 2.62257 113.826 2.97963 114.169 3.26612C114.512 3.5526 114.911 3.76198 115.34 3.88046C115.165 3.34072 115.413 2.73392 115.811 2.33471C116.235 1.96067 116.723 1.66919 117.25 1.47493C118.555 0.901295 120.078 0.330463 121.341 0.992305C121.667 1.16643 121.95 1.41304 122.169 1.71373C122.388 2.01442 122.537 2.36141 122.605 2.72879C124.942 2.92923 127.341 5.49705 127.208 7.87217C127.065 10.429 126.96 10.6359 124.862 14.9386" fill="#213650"/>
<path d="M152.958 120.243H144.74L144.704 120.178C144.599 119.984 144.498 119.779 144.403 119.569C143.556 117.73 143.199 115.627 142.883 113.772L142.645 112.373C142.616 112.204 142.638 112.029 142.707 111.873C142.777 111.716 142.891 111.584 143.035 111.493C143.179 111.402 143.346 111.357 143.515 111.363C143.684 111.37 143.848 111.427 143.985 111.528C145.234 112.45 146.484 113.372 147.733 114.292C148.207 114.641 148.747 115.046 149.265 115.483C149.315 115.236 149.367 114.99 149.419 114.746C149.455 114.578 149.54 114.425 149.662 114.306C149.785 114.187 149.939 114.108 150.107 114.078C150.274 114.049 150.445 114.071 150.6 114.141C150.755 114.212 150.885 114.327 150.975 114.473L151.936 116.041C152.638 117.185 153.257 118.313 153.131 119.53C153.131 119.545 153.13 119.559 153.127 119.574C153.102 119.774 153.055 119.97 152.988 120.16L152.958 120.243Z" fill="#B5C7D9"/>
<path d="M161.206 120.423L83.1079 120.5C83.0299 120.5 82.9553 120.468 82.9003 120.412C82.8453 120.356 82.8145 120.28 82.8145 120.201C82.8145 120.122 82.8453 120.046 82.9003 119.99C82.9553 119.934 83.0299 119.902 83.1079 119.902L161.206 119.825C161.284 119.825 161.358 119.857 161.413 119.913C161.468 119.969 161.499 120.045 161.499 120.124C161.499 120.203 161.468 120.279 161.413 120.335C161.358 120.391 161.284 120.423 161.206 120.423Z" fill="#B5C7D9"/>
</g>
<defs>
<clipPath id="clip0_19_5409">
<rect width="161" height="120" fill="white" transform="translate(0.5 0.5)"/>
</clipPath>
</defs>
</svg>
